<?xml version="1.0" standalone="no"?>
<!DOCTYPE svg PUBLIC "-//W3C//DTD SVG 20010904//EN"
 "http://www.w3.org/TR/2001/REC-SVG-20010904/DTD/svg10.dtd">
<svg version="1.0" xmlns="http://www.w3.org/2000/svg"
 width="828.000000pt" height="828.000000pt" viewBox="0 0 828.000000 828.000000"
 preserveAspectRatio="xMidYMid meet">
<metadata>
Created by potrace 1.14, written by Peter Selinger 2001-2017
</metadata>
<g transform="translate(0.000000,828.000000) scale(0.100000,-0.100000)"
fill="#000000" stroke="none">
<path d="M650 8133 c-46 -8 -165 -45 -177 -55 -7 -6 -13 -8 -13 -4 0 3 -18 -5
-40 -19 -22 -14 -44 -25 -50 -25 -5 0 -10 -4 -10 -10 0 -5 -5 -10 -11 -10 -13
0 -76 -49 -118 -90 -110 -110 -184 -249 -220 -410 -9 -43 -10 -6672 -1 -6725
16 -88 21 -108 30 -125 5 -10 6 -20 3 -24 -3 -3 0 -6 7 -6 7 0 10 -3 7 -7 -11
-11 71 -153 126 -219 49 -57 141 -135 197 -165 14 -8 27 -17 30 -20 9 -11 144
-61 167 -63 13 0 23 -3 23 -6 0 -3 15 -7 33 -10 17 -3 1368 -5 3002 -5 2928 0
2971 0 3053 20 45 11 82 23 82 27 0 5 8 8 18 8 28 0 163 84 224 140 107 96
188 228 226 367 11 37 18 76 16 85 -1 10 1 18 5 18 4 0 7 441 7 980 0 539 0
980 -2 980 -4 0 -265 -270 -469 -486 -77 -82 -176 -185 -220 -230 -44 -45
-147 -152 -230 -239 -211 -222 -373 -384 -423 -425 -24 -19 -49 -40 -55 -46
-51 -47 -302 -184 -337 -184 -6 0 -18 -5 -28 -10 -14 -9 -137 -56 -167 -64
-10 -3 -25 -8 -62 -23 -10 -3 -20 -7 -23 -8 -3 -1 -50 -16 -105 -34 -112 -37
-244 -75 -304 -87 -14 -3 -27 -7 -31 -9 -30 -19 -285 -26 -360 -11 -128 27
-289 154 -348 276 -75 156 -88 289 -47 485 15 73 25 117 38 165 9 30 30 107
47 170 17 63 38 135 47 160 8 25 16 52 18 60 7 36 66 214 84 255 5 11 19 43
31 70 12 28 28 61 36 75 9 14 18 33 21 43 3 9 9 17 14 17 5 0 9 5 9 11 0 24
76 119 190 239 90 95 390 408 460 480 69 70 449 464 585 604 320 331 531 550
599 619 43 45 129 134 191 198 63 64 111 119 108 122 -3 3 32 41 77 84 45 43
123 118 173 166 248 239 337 320 396 362 36 25 70 45 76 45 16 0 13 1842 -3
1916 -20 94 -95 260 -133 296 -9 10 -25 30 -35 45 -9 15 -41 48 -70 73 -29 25
-60 51 -68 58 -8 6 -19 12 -25 12 -6 0 -11 3 -11 8 0 7 -133 74 -155 78 -5 2
-32 9 -59 18 -27 8 -53 13 -57 10 -4 -2 -10 0 -14 6 -6 10 -5919 13 -5975 3z
m1055 -2273 c2 3 38 3 80 0 42 -3 78 -3 80 0 2 3 38 3 80 0 42 -3 78 -3 80 0
2 3 38 3 80 0 42 -3 78 -3 80 0 2 3 38 3 80 0 42 -3 78 -3 80 0 2 3 38 3 80 0
42 -3 78 -2 80 1 2 3 26 3 54 -1 27 -3 58 -3 68 1 11 4 26 3 33 -1 7 -5 24 -4
36 0 15 6 26 5 30 -1 4 -7 10 -7 18 0 7 6 15 8 18 6 7 -7 345 -8 356 -1 4 2
14 1 22 -4 7 -4 24 -4 36 0 15 6 26 5 30 -1 4 -7 10 -7 18 0 7 6 15 8 18 6 7
-7 345 -8 356 -1 4 2 14 1 22 -4 7 -4 24 -4 36 0 15 6 26 5 30 -1 4 -7 10 -7
18 0 7 6 15 8 18 6 7 -7 345 -8 356 -1 4 2 14 1 22 -4 7 -4 24 -4 36 0 15 6
26 5 30 -1 4 -7 10 -7 18 0 7 6 15 8 18 6 7 -7 345 -8 356 -1 4 2 14 1 22 -4
7 -4 24 -4 36 0 15 6 26 5 30 -1 4 -7 10 -7 18 0 7 6 15 8 18 6 7 -7 345 -8
356 -1 4 2 14 1 22 -4 7 -4 24 -4 36 0 15 6 26 5 30 -1 4 -7 10 -7 18 0 7 6
15 9 18 6 5 -5 317 -8 343 -4 6 1 14 1 18 0 4 -1 24 -4 44 -7 133 -21 248
-148 248 -274 0 -100 -75 -203 -183 -253 l-47 -22 -2105 0 -2105 0 -50 27
c-74 39 -151 119 -158 164 -1 10 -6 25 -11 32 -22 35 -2 128 41 191 61 91 142
133 262 137 46 2 85 5 86 6 2 2 38 1 80 -2 42 -3 78 -3 80 0z m2505 -1454 c62
-14 129 -60 186 -129 36 -43 60 -163 40 -196 -4 -6 -9 -21 -11 -33 -3 -12 -9
-24 -14 -27 -5 -4 -11 -13 -13 -21 -2 -7 -27 -36 -57 -62 -101 -90 21 -83
-1552 -83 -1347 1 -1385 1 -1439 20 -62 23 -147 99 -172 155 -34 74 -36 103
-17 166 31 100 111 176 220 208 43 13 2772 14 2829 2z m-1088 -1453 c96 -33
157 -87 196 -173 33 -70 32 -121 -2 -188 -36 -72 -80 -115 -151 -151 l-60 -31
-860 1 -860 0 -58 29 c-33 16 -76 46 -96 68 -67 70 -101 186 -72 240 7 12 8
22 4 22 -4 0 -3 4 2 8 6 4 16 19 24 35 33 62 121 129 196 146 17 4 405 7 864
8 682 0 841 -3 873 -14z"/>
<path d="M7590 5488 c-102 -12 -168 -52 -314 -191 l-128 -122 109 -111 c59
-61 209 -216 333 -344 124 -128 258 -267 298 -308 l72 -75 27 24 c76 69 230
229 225 233 -3 4 0 6 6 6 7 0 12 7 12 15 0 8 3 15 8 15 28 0 49 205 30 300
-10 52 -76 176 -131 250 -50 66 -202 220 -217 220 -5 0 -15 6 -22 13 -19 17
-78 49 -78 42 0 -3 -10 0 -22 6 -41 22 -140 35 -208 27z"/>
<path d="M6787 4796 c-21 -23 -93 -98 -160 -167 -282 -292 -595 -616 -642
-664 -53 -56 -466 -482 -600 -620 -44 -45 -163 -169 -265 -276 -102 -106 -197
-205 -212 -220 -25 -25 -102 -113 -128 -146 -18 -22 -95 -178 -105 -213 -1 -3
-16 -52 -35 -110 -18 -58 -35 -110 -36 -117 -2 -12 -28 -101 -59 -203 -14 -46
-53 -198 -61 -235 -2 -11 -7 -33 -11 -50 -15 -70 -4 -149 24 -182 40 -46 121
-48 273 -8 46 12 109 30 165 47 39 12 75 23 80 24 20 4 251 87 290 104 40 17
68 28 83 31 4 1 31 15 60 30 28 16 52 26 52 24 0 -9 93 56 150 105 60 50 180
170 313 311 49 52 180 189 292 304 309 319 345 358 345 367 0 4 7 8 15 8 8 0
15 4 15 8 0 4 53 62 118 129 152 157 715 733 815 834 42 43 77 81 77 83 0 2
-39 44 -87 94 -49 49 -171 176 -273 282 -102 106 -220 230 -263 274 -43 45
-101 104 -128 133 -27 28 -52 54 -57 56 -4 2 -24 -15 -45 -37z"/>
</g>
</svg>
